<svg width="1178" height="750" viewBox="0 0 1178 750" fill="none" xmlns="http://www.w3.org/2000/svg">
<rect width="1178" height="750" fill="#E5E5E5"/>
<g id="01 1">
<path id="Vector" d="M1178 0H0V750H1178V0Z" fill="white"/>
<g id="Group">
<path id="Vector_2" d="M645.573 465.179C635.403 688.765 504.434 685.915 331.303 688.765C172.742 691.376 15.7132 732.159 18.5241 465.179C20.1913 306.651 158.891 178.124 332.047 178.124C505.203 178.124 652.776 306.8 645.573 465.179Z" fill="#E7EDDE"/>
<path id="Vector_3" d="M1159.94 403.169C1148.86 718.01 1096.05 693.719 756.517 685.406C543.544 680.192 336.479 742.001 340.152 403.169C342.332 201.972 523.667 38.8513 750.047 38.8513C862.502 38.8513 966.706 79.1519 1041.95 144.354C1118.18 210.407 1163.51 301.965 1159.94 403.169Z" fill="#E7EDDE"/>
</g>
<path id="Vector_4" d="M1105.33 650.129L70.3086 650.053L57.7776 635.719H1115.28L1105.33 650.129Z" fill="#F5FFFD"/>
<path id="Vector_5" d="M1130.42 728.891H17.8614L70.3086 650.053L1105.33 650.129L1130.42 728.891Z" fill="#B7CFCD"/>
<g id="Group_2">
<path id="Vector_6" opacity="0.2" d="M1024.11 677.911C1042.18 677.911 1056.84 676.042 1056.84 673.738C1056.84 671.433 1042.18 669.565 1024.11 669.565C1006.03 669.565 991.375 671.433 991.375 673.738C991.375 676.042 1006.03 677.911 1024.11 677.911Z" fill="#665F52"/>
<path id="Vector_7" d="M963.519 611.175C961.035 617.123 959.641 623.729 959.641 630.69C959.641 656.486 978.63 677.43 1002.18 677.814C1018.3 660.591 1024.04 634.863 1024.37 611.175H963.519Z" fill="#998F82"/>
<path id="Vector_8" d="M1042.16 611.175H1024.37C1024.04 634.863 1018.3 660.591 1002.19 677.814C1002.4 677.817 1002.62 677.832 1002.84 677.832C1026.69 677.832 1046.03 656.726 1046.03 630.69C1046.03 623.729 1044.64 617.123 1042.16 611.175Z" fill="#897E72"/>
<path id="Vector_9" d="M1002.73 614.778C1024.53 614.778 1042.2 613.165 1042.2 611.175C1042.2 609.186 1024.53 607.573 1002.73 607.573C980.927 607.573 963.254 609.186 963.254 611.175C963.254 613.165 980.927 614.778 1002.73 614.778Z" fill="#595247"/>
<g id="Group_3">
<path id="Vector_10" d="M980.822 444.47C978.592 436.556 976.047 427.876 976.047 427.876L972.585 427.419C972.585 427.419 974.062 432.529 976.192 440.215C977.959 441.483 979.482 442.918 980.822 444.47Z" fill="#334424"/>
<path id="Vector_11" d="M997.09 508.671C994.944 497.028 984.484 457.709 982.097 449.037C981.701 447.595 981.267 446.046 980.824 444.47C979.484 442.918 977.961 441.483 976.194 440.215C981.137 458.059 989.608 489.875 991.395 504.492C992.73 515.43 995.079 544.506 997.007 570.026L1003.51 580.085C1001.24 551.518 998.198 514.671 997.09 508.671Z" fill="#41573F"/>
<path id="Vector_12" d="M997.005 570.026C998.764 593.309 1000.17 613.634 1000.14 614.516L1006.18 614.58C1006.18 614.58 1005.02 599.181 1003.5 580.083L997.005 570.026Z" fill="#334424"/>
<path id="Vector_13" d="M997.611 390.214C999.08 382.475 988.34 377.416 981.025 374.52C973.71 371.627 965.666 370.349 961.124 366.321C956.583 362.292 948.095 353.455 939.223 352.934C930.352 352.411 917.228 351.953 905.956 348.751C898.619 346.666 889.474 352.578 876.412 348.972C876.889 349.211 884.416 352.364 884.919 352.536C896.113 355.931 910.105 354.234 923.164 361.022C929.694 364.414 940.888 359.324 945.554 366.112C955.815 379.688 968.876 383.931 981.002 393.263C991.359 402.682 986.537 420.81 973.2 427.501C973.679 427.565 974.53 427.678 976.045 427.876C1007.54 432.034 996.14 397.947 997.611 390.214Z" fill="#7A8C75"/>
<path id="Vector_14" d="M981.004 393.261C968.877 383.929 955.816 379.687 945.556 366.111C940.89 359.322 929.697 364.413 923.166 361.02C910.106 354.231 896.114 355.929 884.92 352.535C884.416 352.364 876.89 349.211 876.414 348.971C875.475 352.154 875.99 356.367 911.059 366.998C948.059 378.215 972.585 427.416 972.585 427.416C972.585 427.416 972.585 427.416 973.201 427.498C986.539 420.809 991.361 402.682 981.004 393.261Z" fill="#41573F"/>
</g>
<path id="Vector_15" d="M938.382 491.005L935.545 492.703C937.006 495.321 938.401 497.827 939.746 500.245C942.991 502.906 945.929 505.567 948.854 508.227C944.602 500.687 940.916 494.531 938.382 491.005Z" fill="#334424"/>
<path id="Vector_16" d="M974.172 555.64C966.156 540.144 956.569 521.901 948.854 508.229C945.929 505.568 942.991 502.907 939.746 500.247C970.863 556.163 971.945 559.831 973.481 564.259C974.587 567.443 976.065 572.767 977.586 579.067L984.779 585.608C982.056 574.897 978.494 563.992 974.172 555.64Z" fill="#41573F"/>
<path id="Vector_17" d="M990.328 614.382C989.376 606.814 987.499 596.308 984.778 585.607L977.586 579.065C980.184 589.839 982.902 603.468 984.068 614.152C986.546 614.265 988.26 614.394 990.328 614.382Z" fill="#334424"/>
<path id="Vector_18" d="M858.739 448.301C858.739 448.301 848.477 462.441 864.024 469.513C879.57 476.584 873.665 462.441 894.498 469.513C915.331 476.584 938.38 491.005 938.38 491.005C938.38 491.005 948.603 486.233 945.803 478.863C943.005 471.492 926.834 463.857 926.525 459.613C926.216 455.371 920.306 457.351 911.911 457.351C903.515 457.351 903.825 442.362 888.277 443.775C872.731 445.187 861.848 443.682 861.848 443.682L858.739 448.301Z" fill="#7A8C75"/>
<path id="Vector_19" d="M935.545 492.703L938.382 491.005C940.371 494.159 929.632 473.816 920.308 472.907C911.6 472.059 893.878 466.684 890.457 465.269C887.036 463.857 870.881 469.114 864.025 469.513C862.198 469.62 871.216 472.199 881.088 472.8C887.185 473.172 892.052 471.586 894.189 472.34C899.786 474.319 928.846 483.169 935.545 492.703Z" fill="#41573F"/>
<path id="Vector_20" d="M991.819 579.361C989.055 549.867 985.818 515.239 985.219 508.543C985.206 508.394 985.191 508.263 985.178 508.119C983.74 504.616 982.089 501.111 980.099 497.72L987.13 575.096L991.819 579.361Z" fill="#41573F"/>
<path id="Vector_21" d="M980.786 484.69L978.92 484.785L979.08 486.505L980.099 497.718C982.089 501.11 983.74 504.616 985.178 508.117C984.121 496.721 982.475 494.229 980.786 484.69Z" fill="#334424"/>
<path id="Vector_22" d="M987.13 575.096L990.7 614.382C992.169 614.379 993.64 614.403 995.109 614.452C994.345 606.308 993.136 593.416 991.819 579.361L987.13 575.096Z" fill="#334424"/>
<path id="Vector_23" d="M980.215 487.815C981.748 487.754 990.376 482.665 991.076 477.148C991.776 471.635 987.082 461.581 984.896 459.755C982.712 457.929 978.25 481.604 978.25 481.604L980.215 487.815Z" fill="#334424"/>
<path id="Vector_24" d="M979.08 486.507C979.08 486.507 991.28 475.029 987.432 463.363C983.584 451.696 975.189 440.453 951.168 433.877C927.147 427.303 924.347 427.516 921.783 426.455C919.218 425.394 903.22 423.484 897.296 423.484C891.371 423.484 911.754 428.153 923.182 443.684C930.375 453.461 965.086 464.446 979.08 486.507Z" fill="#41573F"/>
<path id="Vector_25" d="M1006.95 577.459C1004.56 592.937 1002.4 606.311 1001.06 614.526C1002.66 614.598 1004.58 614.543 1006.18 614.58C1007.8 605.571 1010.51 590.208 1013.42 572.442C1011.42 574.486 1009.69 576.445 1006.95 577.459Z" fill="#334424"/>
<path id="Vector_26" d="M1012.93 385.514L1008.31 380.001C1008.31 380.001 1010.26 388.419 1012.56 401.084C1014.58 404.839 1016.46 408.676 1018.16 412.575C1015.33 397.083 1012.93 385.514 1012.93 385.514Z" fill="#334424"/>
<path id="Vector_27" d="M1018.16 412.575C1016.46 408.676 1014.58 404.84 1012.56 401.084C1016.3 421.721 1020.95 453.641 1019.5 478.866C1018.19 501.735 1012.05 544.415 1006.95 577.459C1009.69 576.445 1011.42 574.486 1013.42 572.442C1020.09 531.632 1027.76 478.119 1025.56 459.654C1023.77 444.614 1020.78 426.915 1018.16 412.575Z" fill="#41573F"/>
<path id="Vector_28" d="M1012.93 383.818C1012.93 383.818 1026.5 380.423 1028.13 371.516C1029.76 362.608 1031.39 367.273 1033.49 366.638C1035.59 366.002 1038.86 354.547 1036.29 350.093C1033.73 345.639 1021.55 339.102 1014.93 340.036C1008.3 340.971 1010.87 357.127 1010.64 361.883C1010.4 366.639 1008.22 376.818 1012.93 383.818Z" fill="#7A8C75"/>
<path id="Vector_29" d="M1012.93 385.514C1012.93 385.514 1009.62 371.938 1012.93 369.605C1016.23 367.273 1012.89 362.818 1012.93 360.484C1012.97 358.151 1019.82 349.897 1014.39 338.849C1007.61 325.06 991.747 319.969 983.352 315.728C974.955 311.486 972.624 306.184 966.094 305.123C959.564 304.062 942.816 296.849 942.21 293.669C941.605 290.486 927.847 284.548 928.079 279.457C928.313 274.367 924.813 289.004 938.573 302.152C952.333 315.304 987.315 346.484 991.279 352.636C995.245 358.788 1007.37 380.001 1007.37 380.001L1012.93 385.514Z" fill="#41573F"/>
<path id="Vector_30" d="M1018.13 572.165C1014.16 588.607 1010.29 604.904 1008.03 614.452C1010.03 614.468 1011.92 614.588 1013.92 614.452C1016.31 603.968 1020.64 585.455 1025.06 567.034C1022.65 568.65 1020.09 570.137 1018.13 572.165Z" fill="#334424"/>
<path id="Vector_31" d="M1064.98 442.785C1064.98 442.785 1060.74 451.782 1057.18 459.571C1058.76 458.498 1060.43 457.504 1062.16 456.563C1065.88 448.354 1068.47 442.784 1068.47 442.784H1064.98V442.785Z" fill="#334424"/>
<path id="Vector_32" d="M1055.65 462.938C1051.92 471.211 1035.36 508.755 1031.39 519.998C1029.76 524.644 1023.84 548.553 1018.13 572.166C1020.09 570.138 1022.65 568.651 1025.06 567.035C1030.06 546.166 1035.17 525.416 1037.69 516.604C1041.64 502.806 1054.37 473.825 1062.17 456.565C1060.44 457.505 1058.77 458.499 1057.18 459.572C1056.65 460.73 1056.13 461.866 1055.65 462.938Z" fill="#41573F"/>
<path id="Vector_33" d="M1068.48 442.785C1068.48 442.785 1100.52 397.297 1138.91 391.031C1175.29 385.092 1172.49 385.728 1172.96 383.818C1173.42 381.907 1158.5 371.94 1146.84 373.638C1135.17 375.334 1122.12 374.074 1113.25 373.431C1104.39 372.788 1094.6 380.423 1089.47 383.818C1084.34 387.211 1076.17 387.423 1068.48 389.333C1060.78 391.242 1049.35 394.849 1049.59 402.696C1049.82 410.542 1033.15 442.784 1064.98 442.784C1068.48 442.785 1068.48 442.785 1068.48 442.785Z" fill="#41573F"/>
<path id="Vector_34" d="M1114.61 491.372C1114.61 491.372 1104.16 483.83 1099.14 484.678C1094.13 485.526 1088.18 487.331 1085.85 487.12C1083.52 486.907 1074.89 487.635 1072.32 489.444C1069.76 491.255 1064.08 494.403 1062.72 498.928C1061.36 503.45 1074.42 494.86 1080.37 494.543C1086.32 494.223 1114.61 491.372 1114.61 491.372Z" fill="#7A8C75"/>
<path id="Vector_35" d="M1014.47 614.437C1016.12 614.314 1017.7 614.406 1019.35 614.123C1022.29 604.19 1026.72 589.238 1029.45 580.378C1029.72 579.506 1030.1 578.486 1030.58 577.345C1028.36 579.198 1026.33 581.226 1024.06 583.035C1020.32 593.927 1016.73 606.321 1014.47 614.437Z" fill="#334424"/>
<path id="Vector_36" d="M1065.84 512.322C1065.84 512.322 1064.25 514.559 1061.74 518.172C1061.17 521.239 1060.35 524.305 1059.38 527.372C1064.32 519.565 1067.86 514.153 1067.86 514.153L1065.84 512.322Z" fill="#334424"/>
<path id="Vector_37" d="M1031.32 565.105C1029.06 569.315 1026.53 575.849 1024.06 583.037C1026.33 581.227 1028.36 579.199 1030.58 577.346C1035.37 565.964 1049.94 542.29 1059.38 527.372C1060.35 524.305 1061.17 521.239 1061.74 518.172C1054.14 529.083 1038.03 552.57 1031.32 565.105Z" fill="#41573F"/>
<path id="Vector_38" d="M1118.07 492.985C1118.07 492.985 1085.58 497.653 1079.51 502.886C1073.45 508.119 1067.86 514.151 1067.86 514.151C1067.86 514.151 1055.57 504.302 1062.72 498.928C1069.87 493.552 1078.43 494.257 1080.45 492.985C1082.47 491.714 1098.17 488.462 1103.77 489.735C1109.37 491.007 1115.12 490.438 1118.07 492.985Z" fill="#41573F"/>
</g>
<g id="Group_4">
<path id="Vector_39" d="M632.424 581.385C638.685 580.936 655.39 577.669 667.558 578.163C665.766 577.337 664.032 576.519 662.607 575.9C652.185 572.515 641.773 575.275 632.424 581.385Z" fill="#89936C"/>
<path id="Vector_40" d="M633.81 535.561C634.364 541.681 635.412 565.174 633.204 568.049C632.748 568.638 632.188 569.48 631.617 570.455C639.214 563.174 639.518 547.623 633.81 535.561Z" fill="#89936C"/>
<path id="Vector_41" d="M741.18 523.422C740.676 523.009 740.008 522.889 739.112 523.162C730.965 525.657 644.225 521.291 640.393 520.044C636.555 518.796 630.806 520.044 630.806 520.044C628.888 526.901 633.204 531.266 633.681 534.384C633.721 534.628 633.762 535.038 633.81 535.561C639.518 547.622 639.216 563.174 631.617 570.455C629.183 574.608 626.536 581.195 630.806 581.427C631.213 581.449 631.768 581.43 632.424 581.385C641.773 575.275 652.185 572.513 662.605 575.9C664.03 576.518 665.766 577.337 667.556 578.163C670.5 578.281 673.176 578.619 675.372 579.269C679.523 580.504 685.123 581.375 691.282 581.945C706.936 581.181 723.004 577.3 738.192 578.973C728.721 572.561 733.433 552.526 734.139 546.538C734.856 540.459 741.18 523.422 741.18 523.422Z" fill="#98A579"/>
<path id="Vector_42" d="M738.194 578.973C723.006 577.3 706.937 581.181 691.283 581.945C713.11 583.964 741.994 582.186 738.631 579.269C738.477 579.177 738.339 579.073 738.194 578.973Z" fill="#89936C"/>
<path id="Vector_43" d="M737.191 558.696C737.618 550.373 745.247 526.761 741.18 523.422C741.18 523.422 734.858 540.459 734.141 546.538C733.421 552.617 728.567 573.193 738.631 579.269C734.318 575.529 736.715 568.05 737.191 558.696Z" fill="#89936C"/>
</g>
<g id="Group_5">
<path id="Vector_44" d="M467.733 580.028C462.219 579.519 447.542 576.09 436.811 576.465C438.401 575.659 439.942 574.855 441.207 574.251C450.434 570.965 459.575 573.826 467.733 580.028Z" fill="#A2B29E"/>
<path id="Vector_45" d="M467.118 534.195C466.549 540.308 465.317 563.791 467.223 566.686C467.617 567.279 468.1 568.128 468.589 569.108C461.989 561.751 461.928 546.2 467.118 534.195Z" fill="#A2B29E"/>
<path id="Vector_46" d="M372.649 521.02C373.099 520.61 373.689 520.497 374.475 520.779C381.621 523.352 458.126 519.824 461.521 518.616C464.919 517.404 469.971 518.708 469.971 518.708C471.571 525.584 467.709 529.906 467.247 533.017C467.208 533.261 467.167 533.672 467.116 534.194C461.927 546.2 461.987 561.753 468.587 569.108C470.676 573.285 472.923 579.895 469.157 580.086C468.797 580.105 468.307 580.08 467.73 580.029C459.572 573.827 450.431 570.965 441.204 574.253C439.939 574.857 438.399 575.66 436.807 576.467C434.212 576.556 431.85 576.869 429.903 577.497C426.23 578.692 421.282 579.512 415.847 580.019C402.06 579.105 387.951 575.068 374.543 576.595C382.976 570.275 379.089 550.195 378.542 544.202C377.997 538.116 372.649 521.02 372.649 521.02Z" fill="#C3CDC1"/>
<path id="Vector_47" d="M374.547 576.596C387.955 575.07 402.063 579.107 415.85 580.021C396.587 581.829 371.153 579.772 374.156 576.89C374.293 576.794 374.416 576.692 374.547 576.596Z" fill="#A2B29E"/>
<path id="Vector_48" d="M375.697 556.33C375.432 548.003 369.02 524.319 372.649 521.02C372.649 521.02 377.997 538.116 378.545 544.203C379.1 550.288 383.107 570.909 374.156 576.888C378.007 573.189 375.993 565.687 375.697 556.33Z" fill="#A2B29E"/>
</g>
<g id="sofa">
<path id="Vector_49" d="M747.087 594.032H337.643L285.992 482.391C285.992 482.391 336.555 475.081 359.83 472.967C388.184 470.394 655.755 469.534 695.391 470.629C729.156 471.565 811.55 482.608 811.55 482.608L747.087 594.032Z" fill="#465172"/>
<path id="Vector_50" d="M361.294 515.772C361.294 515.772 438.314 556.193 498.471 561.805C558.627 567.416 737.052 568.625 737.052 568.625V584.406H378.449C378.449 584.406 372.133 527.244 361.294 515.772Z" fill="#303853"/>
<path id="Vector_51" d="M746.643 594.032H368.374V578.635C368.374 578.635 499.11 573.985 547.557 574.894C596.006 575.803 746.643 578.635 746.643 578.635V594.032Z" fill="#566489"/>
<path id="Vector_52" d="M376.8 578.363C376.8 578.363 380.509 556.662 376.8 542.168C374.468 533.055 358.889 506.778 336.8 494.316C314.713 481.851 289.803 478.111 273.353 486.059C256.905 494.007 263.015 501.958 263.015 501.958C263.015 501.958 314.546 502.165 332.571 517.855C351.37 534.218 364.059 569.209 363.59 578.364H376.8V578.363Z" fill="#566489"/>
<path id="Vector_53" d="M738.223 578.363C738.223 578.363 734.514 556.662 738.223 542.168C740.555 533.055 756.132 506.778 778.223 494.316C800.31 481.851 825.22 478.111 841.668 486.059C858.116 494.007 852.006 501.958 852.006 501.958C852.006 501.958 800.476 502.165 782.449 517.855C763.652 534.218 750.962 569.209 751.433 578.364H738.223V578.363Z" fill="#566489"/>
<path id="Vector_54" d="M749.908 619.492H363.59V641.168H749.908V619.492Z" fill="#303853"/>
<path id="Vector_55" d="M749.908 594.032H363.59V621.756H749.908V594.032Z" fill="#28304A"/>
<path id="Vector_56" d="M745.183 594.032H369.831V619.492H745.183V594.032Z" fill="#404C6B"/>
<path id="Vector_57" d="M263.015 501.956C263.015 501.956 282.283 541.699 290.743 562.738C299.202 583.778 306.723 616.19 307.663 621.26C308.603 626.326 308.382 648.201 364.059 641.754C369.377 641.138 368.29 568.142 368.29 568.142C368.29 568.142 371.361 523.69 325.051 504.293C280.405 485.592 266.774 498.217 263.015 501.956Z" fill="#404C6B"/>
<path id="Vector_58" d="M852.008 501.956C852.008 501.956 832.74 541.699 824.279 562.738C815.821 583.778 808.299 616.19 807.36 621.26C806.421 626.326 806.642 648.201 750.964 641.754C745.646 641.138 746.734 568.142 746.734 568.142C746.734 568.142 743.662 523.69 789.972 504.293C834.618 485.592 848.247 498.217 852.008 501.956Z" fill="#404C6B"/>
</g>
<path id="Vector_59" d="M378.449 641.168H369.83V672.983H378.449V641.168Z" fill="#665F52"/>
<path id="Vector_60" d="M745.491 641.168H736.872V672.983H745.491V641.168Z" fill="#665F52"/>
<path id="Vector_61" opacity="0.2" d="M555.056 680.597C657.353 680.597 740.281 677.527 740.281 673.739C740.281 669.952 657.353 666.882 555.056 666.882C452.758 666.882 369.83 669.952 369.83 673.739C369.83 677.527 452.758 680.597 555.056 680.597Z" fill="#665F52"/>
<g id="Group_6">
<g id="Group_7">
<path id="Vector_62" d="M328.336 403.87L333.453 399.148V236.373L328.336 231.65V403.87Z" fill="#B5B5B5"/>
<path id="Vector_63" opacity="0.1" d="M473.219 412.084H341.785L328.924 402.757L328.932 231.652L463.795 231.603L473.219 239.969V412.084Z" fill="#665F52"/>
<g id="Group_8">
<g id="Group_9">
<g id="Group_10">
<g id="Group_11">
<path id="Vector_64" d="M466.272 231.651H328.336V403.872H466.272V231.651Z" fill="#D4D4D5"/>
</g>
<g id="Group_12">
<path id="Vector_65" d="M460.336 236.375H333.582V399.15H460.336V236.375Z" fill="#ECECEC"/>
</g>
</g>
<g id="Group_13">
<path id="Vector_66" d="M334.621 236.375H333.063V399.15H334.621V236.375Z" fill="#A0A0A0"/>
</g>
<g id="Group_14" opacity="0.6">
<path id="Vector_67" opacity="0.7" d="M460.603 236.375H459.569V399.15H460.603V236.375Z" fill="#A0A0A0"/>
</g>
<g id="Group_15">
<path id="Vector_68" d="M460.335 236.375H334.621V237.786H460.335V236.375Z" fill="#A0A0A0"/>
</g>
</g>
<g id="Group_16">
<path id="Vector_69" d="M445.151 374.45H350.867V266.953H445.151V374.45Z" fill="#D1CDC1"/>
</g>
</g>
<path id="Vector_70" d="M466.27 403.873L460.362 399.15V236.375L466.27 231.652V403.873Z" fill="#EAEAEA"/>
<path id="Vector_71" d="M333.453 399.148L328.336 403.84V231.651L333.063 236.374L333.453 399.148Z" fill="#BCBCBC"/>
<path id="Vector_72" opacity="0.7" d="M460.335 398.456H334.621V399.15H460.335V398.456Z" fill="#A0A0A0"/>
</g>
<path id="Vector_73" d="M396.96 292.739C381.773 292.739 369.463 303.935 369.463 317.748C369.463 331.56 381.773 342.757 396.96 342.757C412.146 342.757 424.456 331.56 424.456 317.748C424.456 303.935 412.145 292.739 396.96 292.739ZM396.96 330.852C389.003 330.852 382.552 324.984 382.552 317.748C382.552 310.511 389.003 304.643 396.96 304.643C404.916 304.643 411.367 310.51 411.367 317.748C411.367 324.986 404.916 330.852 396.96 330.852Z" fill="#E2DFD9"/>
</g>
<g id="Group_17">
<g id="Group_18">
<path id="Vector_74" d="M615.898 399.773L621.015 395.052V232.276L615.898 227.554V399.773Z" fill="#B5B5B5"/>
<path id="Vector_75" opacity="0.1" d="M760.783 407.987H629.347L616.486 398.66L616.496 227.556L751.355 227.506L760.783 235.873V407.987Z" fill="#665F52"/>
<g id="Group_19">
<g id="Group_20">
<g id="Group_21">
<g id="Group_22">
<path id="Vector_76" d="M753.833 227.554H615.898V399.775H753.833V227.554Z" fill="#D4D4D5"/>
</g>
<g id="Group_23">
<path id="Vector_77" d="M747.899 232.279H621.145V395.053H747.899V232.279Z" fill="#ECECEC"/>
</g>
</g>
<g id="Group_24">
<path id="Vector_78" d="M622.184 232.279H620.628V395.053H622.184V232.279Z" fill="#A0A0A0"/>
</g>
<g id="Group_25" opacity="0.6">
<path id="Vector_79" opacity="0.7" d="M748.167 232.279H747.132V395.053H748.167V232.279Z" fill="#A0A0A0"/>
</g>
<g id="Group_26">
<path id="Vector_80" d="M747.899 232.279H622.184V233.689H747.899V232.279Z" fill="#A0A0A0"/>
</g>
</g>
<g id="Group_27">
<path id="Vector_81" d="M732.714 370.353H638.43V262.856H732.714V370.353Z" fill="#D1CDC1"/>
</g>
</g>
<path id="Vector_82" d="M753.833 399.776L747.925 395.053V232.279L753.833 227.556V399.776Z" fill="#EAEAEA"/>
<path id="Vector_83" d="M621.015 395.052L615.898 399.744V227.554L620.628 232.277L621.015 395.052Z" fill="#BCBCBC"/>
<path id="Vector_84" opacity="0.7" d="M747.899 394.359H622.184V395.053H747.899V394.359Z" fill="#A0A0A0"/>
</g>
<path id="Vector_85" d="M698.533 291.575H670.509L656.498 313.649L670.509 335.724H698.533L712.546 313.649L698.533 291.575ZM692.446 326.135H676.597L668.672 313.651L676.597 301.167H692.446L700.373 313.651L692.446 326.135Z" fill="#E2DFD9"/>
</g>
<g id="Group_28">
<g id="Group_29">
<path id="Vector_86" d="M834.165 45.015H832.012V142.631C832.728 142.249 833.448 141.865 834.165 141.482V45.015Z" fill="#6D8480"/>
<path id="Vector_87" d="M832.01 142.631V251.582H834.163V140.951C833.446 141.512 832.728 142.072 832.01 142.631Z" fill="#5F7571"/>
<path id="Vector_88" d="M844.214 260.178L834.165 249.515H832.01L822.442 260.393V260.603H844.214V260.178Z" fill="#5F7571"/>
<path id="Vector_89" d="M844.215 260.603H822.442V289.551H844.215V260.603Z" fill="#6D8480"/>
<path id="Vector_90" d="M892.896 321.539L844.093 289.551H840.688H837.416H833.448H833.209H822.563L773.756 321.539C763.246 328.126 765.991 330.078 767.537 330.895L833.209 331.057H833.327H833.448L874.23 330.956L894.953 330.905L899.118 330.895C900.664 330.078 903.951 328.126 892.896 321.539Z" fill="#7B9491"/>
</g>
<path id="Vector_91" d="M837.416 289.551L872.592 331.059L891.954 330.913L840.688 289.551H837.416Z" fill="#90A5A2"/>
<path id="Vector_92" d="M840.431 260.603H837.875V289.551H840.431V260.603Z" fill="#90A5A2"/>
</g>
<g id="Group_30">
<g id="Group_31">
<path id="Vector_93" d="M539.634 94.0165H538.061V163.804C538.585 163.53 539.11 163.256 539.634 162.982V94.0165Z" fill="#6D8480"/>
<path id="Vector_94" d="M538.061 163.804V241.695H539.634V162.603C539.108 163.005 538.585 163.405 538.061 163.804Z" fill="#5F7571"/>
<path id="Vector_95" d="M546.968 247.841L539.634 240.219H538.061L531.077 247.996V248.146H546.968V247.841Z" fill="#5F7571"/>
<path id="Vector_96" d="M546.968 248.146H531.077V268.841H546.968V248.146Z" fill="#6D8480"/>
<path id="Vector_97" d="M582.501 291.71L546.88 268.841H544.395H542.008H539.112H538.935H531.163L495.54 291.71C487.87 296.419 489.873 297.816 491.002 298.399L538.935 298.515H539.022H539.11L568.876 298.443L584.002 298.407L587.042 298.399C588.172 297.816 590.571 296.419 582.501 291.71Z" fill="#7B9491"/>
</g>
<path id="Vector_98" d="M542.006 268.841L567.681 298.517L581.813 298.411L544.395 268.841H542.006Z" fill="#90A5A2"/>
<path id="Vector_99" d="M544.208 248.146H542.341V268.841H544.208V248.146Z" fill="#90A5A2"/>
</g>
<g id="Group_32">
<g id="Group_33">
<path id="Vector_100" d="M250.171 486.245H112.661V539.36H250.171V486.245Z" fill="#72524E"/>
<path id="Vector_101" opacity="0.3" d="M180.35 503.187C183.289 503.187 185.671 501.02 185.671 498.348C185.671 495.675 183.289 493.508 180.35 493.508C177.412 493.508 175.03 495.675 175.03 498.348C175.03 501.02 177.412 503.187 180.35 503.187Z" fill="#3B2B23"/>
<path id="Vector_102" d="M250.171 541.327H112.661V593.494H250.171V541.327Z" fill="#2E3449"/>
<path id="Vector_103" opacity="0.3" d="M180.35 556.354C183.289 556.354 185.671 554.187 185.671 551.514C185.671 548.842 183.289 546.675 180.35 546.675C177.412 546.675 175.03 548.842 175.03 551.514C175.03 554.187 177.412 556.354 180.35 556.354Z" fill="#0C0C0C"/>
<path id="Vector_104" d="M181.417 555.348C184.355 555.348 186.738 553.181 186.738 550.509C186.738 547.836 184.355 545.669 181.417 545.669C178.478 545.669 176.096 547.836 176.096 550.509C176.096 553.181 178.478 555.348 181.417 555.348Z" fill="#12182A"/>
<path id="Vector_105" d="M181.415 502.089C184.354 502.089 186.736 499.922 186.736 497.25C186.736 494.577 184.354 492.41 181.415 492.41C178.477 492.41 176.095 494.577 176.095 497.25C176.095 499.922 178.477 502.089 181.415 502.089Z" fill="#3B2B23"/>
<path id="Vector_106" d="M112.345 484.34H108.206V596.21H112.345V484.34Z" fill="#3B4963"/>
<path id="Vector_107" d="M254.247 484.196H250.834V594.114H254.247V484.196Z" fill="#3B4963"/>
<path id="Vector_108" d="M254.247 594.11H108.206V599.782H254.247V594.11Z" fill="#36425E"/>
<path id="Vector_109" d="M250.171 539.36H112.661V541.327H250.171V539.36Z" fill="#0C0C0C"/>
<path id="Vector_110" d="M250.171 593.23H112.661V594.114H250.171V593.23Z" fill="#0C0C0C"/>
<path id="Vector_111" d="M250.171 485.105H112.661V486.245H250.171V485.105Z" fill="#0C0C0C"/>
<path id="Vector_112" d="M250.832 485.105H249.726V594.114H250.832V485.105Z" fill="#232323"/>
<path id="Vector_113" d="M112.905 484.961H112.231V594.116H112.905V484.961Z" fill="#232323"/>
<path id="Vector_114" d="M255.902 481.373H108.206V485.077H255.902V481.373Z" fill="#806762"/>
<path id="Vector_115" d="M255.902 481.373H109.034L112.71 478.245H251.318L255.902 481.373Z" fill="#B3A49C"/>
<path id="Vector_116" opacity="0.2" d="M243.877 685.662L120.763 685.664L132.124 650.053H225.428L243.877 685.662Z" fill="#665F52"/>
<path id="Vector_117" d="M123.114 622.541L113.94 683.147C113.94 683.147 114.322 684.701 117.951 685.394C121.579 686.091 122.594 685.305 123.358 684.437C123.981 683.729 135.617 627.858 139.888 607.285L123.114 622.541Z" fill="#806762"/>
<path id="Vector_118" d="M141.442 599.782H126.558L123.114 622.541L139.887 607.285C140.851 602.635 141.442 599.782 141.442 599.782Z" fill="#6D5854"/>
<path id="Vector_119" d="M225.662 599.782L233.815 653.638C233.815 653.638 233.568 654.64 231.225 655.089C228.88 655.537 228.224 655.03 227.73 654.469C227.238 653.909 216.05 599.782 216.05 599.782H225.662V599.782Z" fill="#604C49"/>
<path id="Vector_120" d="M237.554 599.782H222.67C222.67 599.782 223.368 603.168 224.492 608.577L241.181 623.757L237.554 599.782Z" fill="#6D5854"/>
<path id="Vector_121" d="M241.182 623.757L224.494 608.577C228.961 630.102 240.143 683.742 240.754 684.437C241.518 685.306 242.534 686.091 246.163 685.396C249.79 684.702 250.173 683.152 250.173 683.152L241.182 623.757Z" fill="#806762"/>
</g>
<g id="Group_34">
<path id="Vector_122" d="M203.077 353.237C196.454 352.908 189.256 352.673 182.224 352.673C158.959 352.673 131.867 355.243 131.867 355.243V421.114C131.867 421.114 167.855 422.054 182.224 422.217C187.498 422.276 194.836 422.166 202.206 421.995C211.002 400.281 207.519 376.135 203.077 353.237Z" fill="#B9B1AD"/>
<path id="Vector_123" d="M230.585 355.243C230.585 355.243 218.367 353.992 203.077 353.237C207.521 376.135 211.004 400.281 202.207 421.993C216.34 421.663 230.587 421.112 230.587 421.112V355.243H230.585Z" fill="#ADA5A1"/>
<path id="Vector_124" d="M230.585 421.112C230.585 420.772 208.486 420.498 181.225 420.498C153.965 420.498 131.866 420.773 131.866 421.112C131.866 421.452 153.965 422.828 181.225 422.828C208.486 422.828 230.585 421.452 230.585 421.112Z" fill="#797572"/>
<path id="Vector_125" d="M185.88 420.498H179.58V427.367H185.88V420.498Z" fill="#9B9EA0"/>
<g id="Group_35">
<path id="Vector_126" d="M185.967 432.424C183.698 431.732 183.55 427.828 183.542 424.918H182.732L174.815 424.916C174.815 424.916 176.702 428.965 174.815 430.557C172.927 432.151 158.763 441.232 155.125 444.787C151.481 448.343 147.304 460.611 151.617 467.724C155.933 474.837 162.271 477.415 165.102 478.764C167.538 479.924 179.444 479.906 182.731 479.876C185.442 479.901 194.028 479.918 198.31 479.267C212.709 464.598 203.087 443.746 185.967 432.424Z" fill="#B7CFCD"/>
<path id="Vector_127" d="M210.337 444.787C206.693 441.23 192.534 432.151 190.646 430.557C188.76 428.965 190.646 424.916 190.646 424.916L183.541 424.918C183.55 427.828 183.698 431.732 185.965 432.424C203.087 443.746 212.709 464.598 198.31 479.267C199.215 479.132 199.931 478.967 200.355 478.764C203.185 477.415 209.525 474.837 213.84 467.724C218.157 460.611 213.979 448.343 210.337 444.787Z" fill="#A9BFBC"/>
</g>
</g>
</g>
<g id="Group_36">
<path id="Vector_128" opacity="0.2" d="M890.561 685.451C923.471 685.451 950.15 684.155 950.15 682.556C950.15 680.958 923.471 679.662 890.561 679.662C857.651 679.662 830.973 680.958 830.973 682.556C830.973 684.155 857.651 685.451 890.561 685.451Z" fill="#665F52"/>
<g id="Group_37">
<g id="Group_38">
<path id="Vector_129" d="M863.273 577.465H846.73L844.271 593.912L861.575 584.772L863.273 577.465Z" fill="#998F82"/>
<path id="Vector_130" d="M934.758 577.465H918.217L920.317 586.503L937.304 594.489L934.758 577.465Z" fill="#998F82"/>
<path id="Vector_131" d="M853.456 596.616V600.144H862.448C863.518 599.041 864.503 597.948 865.053 596.616H853.456Z" fill="#998F82"/>
<path id="Vector_132" d="M870.928 574.096H833.913V581.549H870.928V574.096Z" fill="#A3998D"/>
<path id="Vector_133" d="M939.632 574.096H870.928V581.549H939.632V574.096Z" fill="#B1A696"/>
<path id="Vector_134" d="M962.089 574.096H939.632V581.549H962.089C964.569 581.549 966.578 579.881 966.578 577.823C966.578 575.765 964.569 574.096 962.089 574.096Z" fill="#998F82"/>
<path id="Vector_135" d="M821.817 574.096C819.338 574.096 817.329 575.765 817.329 577.823C817.329 579.881 819.34 581.549 821.817 581.549H833.914V574.096H821.817V574.096Z" fill="#998F82"/>
<path id="Vector_136" d="M930.45 596.616H916.688L918.673 600.144H930.45V596.616Z" fill="#998F82"/>
<path id="Vector_137" d="M844.271 593.912L831.015 682.556H838.873L861.575 584.772L844.271 593.912Z" fill="#B1A696"/>
<path id="Vector_138" d="M950.474 682.556L937.304 594.489L920.317 586.503L942.616 682.556H950.474Z" fill="#B1A696"/>
<path id="Vector_139" d="M916.688 596.616H865.053L862.448 600.144H918.673L916.688 596.616Z" fill="#B1A696"/>
</g>
<g id="Group_39">
<g id="Group_40">
<g id="Group_41">
<path id="Vector_140" d="M925.149 560.586H856.211C855.706 560.586 855.215 560.608 854.732 560.643C856.527 562.156 857.663 564.43 857.663 566.973C857.663 569.515 856.527 571.787 854.732 573.303C855.215 573.336 855.707 573.358 856.211 573.358H925.149C929.966 573.358 934.413 571.708 934.413 569.672V564.27C934.413 562.236 929.966 560.586 925.149 560.586Z" fill="white"/>
<path id="Vector_141" d="M925.42 560.041H856.483C855.657 560.041 854.853 560.092 854.086 560.175C854.48 560.485 854.847 560.823 855.185 561.18C855.609 561.148 856.041 561.131 856.483 561.131H925.42C929.776 561.131 933.598 562.598 933.598 564.272V569.674C933.598 571.348 929.776 572.814 925.42 572.814H856.483C856.02 572.814 855.568 572.794 855.128 572.763C854.783 573.119 854.412 573.452 854.011 573.76C854.801 573.851 855.627 573.901 856.483 573.901H925.42C931.036 573.901 935.777 571.965 935.777 569.674V564.272C935.777 561.977 931.036 560.041 925.42 560.041Z" fill="#9D9FAE"/>
</g>
<path id="Vector_142" opacity="0.6" d="M896.512 565.273H902.507L901.797 569.818L896.512 565.273Z" fill="#CECFD1"/>
<path id="Vector_143" d="M896.512 565.273H902.507V568.671L896.512 565.273Z" fill="#CDCBC4"/>
</g>
<path id="Vector_144" opacity="0.6" d="M855.31 561.178L862.571 562.311C862.571 562.311 926.803 562.022 929.156 563.989C930.852 565.409 931.322 568.55 930.265 570.891C929.861 571.79 927.74 572.064 927.214 572.742C927.214 572.742 931.184 572.354 933.012 571.064C934.237 570.201 933.678 569.023 933.699 567.309C933.711 565.884 934.172 564.549 933.364 563.442C932.555 562.333 930.381 561.39 926.31 561.143L855.31 561.178Z" fill="#CECFD1"/>
</g>
<g id="Group_42">
<g id="Group_43">
<g id="Group_44">
<path id="Vector_145" d="M926.95 546.593H862.213C861.738 546.593 861.277 546.616 860.824 546.65C862.507 548.163 863.575 550.437 863.575 552.98C863.575 555.522 862.509 557.794 860.824 559.311C861.275 559.343 861.738 559.366 862.213 559.366H926.95C931.474 559.366 935.649 557.715 935.649 555.68V550.278C935.649 548.244 931.472 546.593 926.95 546.593Z" fill="white"/>
<path id="Vector_146" d="M927.205 546.047H862.468C861.691 546.047 860.936 546.098 860.216 546.181C860.588 546.491 860.932 546.828 861.249 547.186C861.647 547.154 862.054 547.136 862.468 547.136H927.205C931.296 547.136 934.884 548.604 934.884 550.278V555.68C934.884 557.354 931.296 558.82 927.205 558.82H862.468C862.031 558.82 861.61 558.8 861.195 558.769C860.873 559.125 860.522 559.458 860.146 559.766C860.889 559.857 861.665 559.907 862.468 559.907H927.205C932.479 559.907 936.93 557.971 936.93 555.68V550.278C936.93 547.985 932.479 546.047 927.205 546.047Z" fill="#C1A24C"/>
</g>
<path id="Vector_147" opacity="0.6" d="M900.057 551.281H905.687L905.018 555.826L900.057 551.281Z" fill="#CECFD1"/>
<path id="Vector_148" d="M900.057 551.281H905.687V554.677L900.057 551.281Z" fill="#CDCBC4"/>
</g>
<path id="Vector_149" opacity="0.6" d="M861.365 547.186L868.183 548.318C868.183 548.318 928.501 548.029 930.712 549.997C932.307 551.416 932.747 554.558 931.754 556.898C931.374 557.797 929.383 558.071 928.887 558.75C928.887 558.75 932.616 558.361 934.332 557.071C935.483 556.208 934.959 555.031 934.979 553.317C934.99 551.891 935.422 550.556 934.664 549.449C933.905 548.34 931.863 547.397 928.042 547.15L861.365 547.186Z" fill="#CECFD1"/>
</g>
<g id="Group_45">
<path id="Vector_150" d="M907.842 510.937C906.972 506.986 903.138 504.011 898.537 504.011C893.672 504.011 889.668 507.342 889.117 511.633C895.543 514.049 901.937 512.855 907.842 510.937Z" fill="white"/>
<path id="Vector_151" d="M889.118 511.632C889.076 511.964 889.048 512.299 889.048 512.642V539.318C889.048 544.084 908.03 544.084 908.03 539.318V512.642C908.03 512.058 907.965 511.488 907.844 510.937C901.937 512.855 895.543 514.049 889.118 511.632Z" fill="#F7F5ED"/>
<g id="Group_46">
<path id="Vector_152" d="M899.344 498.206H897.729V504.01H899.344V498.206Z" fill="#C1A24C"/>
</g>
<path id="Vector_153" d="M907.121 540.638H889.958C888.474 540.638 887.268 541.674 887.135 542.992H909.94C909.807 541.674 908.601 540.638 907.121 540.638Z" fill="#183542"/>
<path id="Vector_154" d="M887.135 542.992C887.127 543.071 887.109 543.147 887.109 543.227C887.109 544.656 888.384 545.815 889.956 545.815H907.119C908.69 545.815 909.964 544.656 909.964 543.227C909.964 543.145 909.946 543.071 909.938 542.992H887.135Z" fill="#0F2B3A"/>
</g>
</g>
</g>
</g>
</svg>
